<?xml version="1.0" ?><!-- Uploaded to: SVG Repo, www.svgrepo.com, Generator: SVG Repo Mixer Tools -->
<svg fill="#000000" width="800px" height="800px" viewBox="0 0 32 32" id="OBJECT" xmlns="http://www.w3.org/2000/svg"><title/><path d="M20.63,29H17V19.92a6.29,6.29,0,0,1-2,0V29H11.33a1,1,0,1,0,0,2h9.3a1,1,0,0,0,0-2Z"/><path d="M16,6a7,7,0,0,1,3.75,1.1L19.83,5a3.77,3.77,0,0,0-1.06-2.81A3.82,3.82,0,0,0,16,1a3.84,3.84,0,0,0-3.83,4.11l.14,1.95A7,7,0,0,1,16,6Z"/><path d="M14.79,19.89a7,7,0,0,1-5.43-4.7L6.23,18.07a3.84,3.84,0,0,0,2.61,6.66H9a3.89,3.89,0,0,0,2.77-1.32Z"/><path d="M25.77,18.07l-3.13-2.88a7,7,0,0,1-5.43,4.7l3.05,3.52A3.89,3.89,0,0,0,23,24.73h.13a3.84,3.84,0,0,0,2.61-6.66Z"/><circle cx="16" cy="13" r="5"/></svg>