<?xml version="1.0" encoding="UTF-8"?>
<!-- Uploaded to: SVG Repo, www.svgrepo.com, Generator: SVG Repo Mixer Tools -->
<svg width="800px" height="800px" viewBox="0 0 20 20" version="1.1" xmlns="http://www.w3.org/2000/svg" xmlns:xlink="http://www.w3.org/1999/xlink">
    <title>content / 37 - content, cart, checkout, shopping, shopping cart, webshop icon</title>
    <g id="Free-Icons" stroke="none" stroke-width="1" fill="none" fill-rule="evenodd" stroke-linecap="round" stroke-linejoin="round">
        <g transform="translate(-451.000000, -452.000000)" id="Group" stroke="#000000" stroke-width="2">
            <g transform="translate(449.000000, 450.000000)" id="Shape">
                <path d="M5.00999474,6 L21,6 L19.7276973,13.1746098 C19.6430247,13.6520853 19.2279846,14 18.7430596,14 L6.0012509,14 C5.48841428,14 5.06574296,13.6139598 5.00797785,13.1166211 L5.0012509,12.9987507 L5.0012509,12.9987507 L5.00999474,6 Z">
</path>
                <polyline points="3 3 4.99005496 3 5 7">
</polyline>
                <path d="M14.5000376,19.000047 C14.5000376,17.8954774 15.3954513,17.000047 16.5,17.000047 C17.6045487,17.000047 18.4999624,17.8954774 18.4999624,19.000047 C18.4999624,20.1046166 17.6045487,21.000047 16.5,21.000047 C15.4293838,21.000047 14.5527352,20.0576005 14.5000376,19.000047 Z">
</path>
                <path d="M7.5,21.000047 C6.39545136,21.000047 5.5000376,20.1046166 5.5000376,19.000047 C5.5000376,17.8954774 6.39545136,17.000047 7.5,17.000047 C8.60454864,17.000047 9.4999624,17.8954774 9.4999624,19.000047 C9.4999624,20.1046166 8.60454864,21.000047 7.5,21.000047 Z">
</path>
                <line x1="7.5" y1="14" x2="7.5" y2="17">
</line>
                <line x1="14" y1="19" x2="10" y2="19">
</line>
            </g>
        </g>
    </g>
</svg>